<svg id="Layer_1" enable-background="new 0 0 512 512" height="512" viewBox="0 0 512 512" width="512" xmlns="http://www.w3.org/2000/svg"><path d="m346.186 197.926c-1.551-3.573-6.703-3.352-7.95.338l-15.886 47.037c-.161.475-.844.431-.941-.062-.941-4.771-4.865-18.438-21.078-43.909-1.937-3.042-6.539-2.491-7.671.933-5.626 17.013-18.521 57.271 6.093 102.496l43.655-.685c-.001.001 32.771-39.364 3.778-106.148z" fill="#f76c57"/><path d="m334.507 304.202-35.757.556c-24.611-45.225-11.713-85.484-6.088-102.492 1.133-3.43 5.728-3.977 7.664-.937 13.166 20.686 18.234 33.584 20.181 40.259 0 0-.01 0 0 .01-1.071 17.966 1.638 39.631 14 62.604z" fill="#e5554e"/><path d="m217.838 326.07c-1.785-24.955-17.482-46.43-40.247-56.807-2.347-1.07-4.852-2.525-7.585-4.529-18.216-13.366-8.943-35.28-31.22-39.049-24.345-4.118-23.297 19.668-47.185 25.911s-35.457-15.593-54.04.665c-15.835 13.854 4.869 27.304-1.352 47.404s-28.654 18.245-25.817 39.094c3.02 22.196 24.261 14.709 35.827 33.893 1.735 2.878 2.945 5.483 3.787 7.898 8.135 23.329 28.01 40.582 52.452 44.189l8.161 1.204c19.465 2.872 39.21-2.937 54.018-15.892l30.575-26.75c15.838-13.857 24.265-34.338 22.763-55.329z" fill="#24d3b5"/><path d="m137.229 424.526c-8.592 2.215-17.626 2.74-26.609 1.422l-8.159-1.205c-24.446-3.606-44.318-20.861-52.456-44.194-.845-2.411-2.05-5.017-3.781-7.891-11.569-19.192-32.811-11.703-35.829-33.893-2.843-20.851 19.594-18.996 25.816-39.095s-14.484-33.553 1.35-47.409c13.454-11.775 23.23-3.564 36.674-.525-.206.165-.412.34-.618.525-15.834 13.856 4.873 27.31-1.35 47.409-6.222 20.099-28.659 18.244-25.816 39.095 3.018 22.19 24.261 14.701 35.829 33.893 1.731 2.874 2.936 5.481 3.781 7.891 7.994 22.92 27.309 39.98 51.168 43.977z" fill="#20b7a1"/><path d="m187.041 381.678c-3.566.622-17.285-.411-52.359-35.069l2.786-2.438c8.761-7.666 11.396-20.366 6.406-30.884l-5.619-11.844c-1.829-3.855-6.438-5.498-10.292-3.669-3.856 1.829-5.498 6.437-3.669 10.292l5.619 11.844c2.041 4.302.964 9.496-2.62 12.631l-3.432 3.003c-23.893-25.208-44.051-51.392-44.253-51.655-2.599-3.384-7.448-4.021-10.833-1.424-3.385 2.598-4.022 7.448-1.424 10.833.14.182 9.66 12.549 23.391 28.532l-3.612 3.16c-3.584 3.135-8.876 3.513-12.867.918l-10.992-7.142c-3.578-2.324-8.363-1.309-10.689 2.269-2.325 3.578-1.309 8.364 2.269 10.689 11.079 7.199 15.704 11.339 25.215 11.339 10.938 0 16.741-6.009 20.864-9.616 98.21 109.611 106.488 44.685 86.111 48.231z" fill="#199a8e"/><path d="m314.031 357.3-25.817-9.729-83.038-24.108c-13.866-4.026-28.695 1.88-35.997 14.337l-22.664 38.661-16.541 35.781h190.238z" fill="#e5646e"/><path d="m216.254 326.68c-4.44 2.648-8.272 6.418-11.023 11.116l-22.664 38.662-16.534 35.788h-36.056l16.534-35.788 22.664-38.662c7.304-12.455 22.138-18.358 36.005-14.33z" fill="#e04955"/><path d="m390.188 143.794h-270.678c-4.316 0-7.757-3.637-7.52-7.943 4.131-75.326 66.508-135.138 142.864-135.138 76.346 0 138.733 59.812 142.854 135.138.237 4.306-3.193 7.943-7.52 7.943z" fill="#ffe5a0"/><path d="m148.046 135.851c-.237 4.306 3.204 7.943 7.52 7.943h-36.056c-4.316 0-7.757-3.637-7.52-7.943 4.131-75.326 66.508-135.138 142.864-135.138 6.109 0 12.125.381 18.028 1.123-67.929 8.54-121.035 64.715-124.836 134.015z" fill="#ffdd81"/><path d="m361.817 143.794h-213.925c0-26.754 9.869-51.251 26.166-70.031 3.389-3.894 7.046-7.551 10.951-10.92 16.926-14.618 38.477-24.044 62.119-25.734 2.555-.185 5.12-.278 7.716-.278s5.182.093 7.737.278c23.704 1.7 45.286 11.157 62.233 25.837 3.894 3.379 7.541 7.026 10.92 10.92 16.245 18.769 26.083 43.226 26.083 69.928z" fill="#fed22b"/><path d="m506.433 337.476c-9.405 29.051-30.411 54.208-60.141 68.053-.68.319-1.37.628-2.071.937-36.684 16.215-77.222 11.589-108.374-8.849-17.503-11.456-32.038-27.907-41.289-48.428-2.544-5.635-4.584-11.373-6.15-17.152-4.564-16.854 8.746-33.264 26.197-32.636l22.458.824c11.929.433 22.55 7.52 27.701 18.286.062.134.134.268.196.402 1.834 3.709 4.224 6.995 7.036 9.766 8.921 8.88 22.035 12.805 34.521 9.962 1.823-.422 3.647-.979 5.429-1.689 15.597-6.212 24.528-21.665 23.313-37.364-.309-4.09-1.308-8.19-3.06-12.156-1.607-3.606-3.709-6.84-6.191-9.642-.752-.845-1.453-1.71-2.112-2.606-7.314-9.859-9.405-22.746-5.573-34.542 5.532-16.988 20.954-26.517 36.633-26.517 10.261 0 20.634 4.09 28.402 12.846 7.592 8.571 14.021 18.45 18.904 29.494 11.773 26.629 12.505 55.339 4.171 81.011z" fill="#fa9084"/><g fill="#fdc202"><path d="m201.591 178.936c-.725-4.205-4.718-7.023-8.927-6.301-4.205.725-7.026 4.722-6.301 8.927l3.439 19.948c.648 3.761 3.914 6.414 7.605 6.414 4.818 0 8.434-4.335 7.623-9.04z"/><path d="m246.857 234.332c-4.09-1.212-8.391 1.12-9.604 5.211l-5.754 19.407c-1.213 4.091 1.12 8.391 5.211 9.604 4.092 1.213 8.391-1.12 9.604-5.211l5.754-19.407c1.213-4.091-1.12-8.391-5.211-9.604z"/><path d="m268.88 173.003c-3.547-2.373-8.345-1.422-10.719 2.123l-11.259 16.822c-3.449 5.154.297 12.025 6.414 12.025 2.491 0 4.938-1.204 6.428-3.43l11.259-16.822c2.374-3.546 1.423-8.345-2.123-10.718z"/><path d="m272.872 38.366c-50.427 8.581-88.924 52.59-88.924 105.428h-36.056c0-58.977 47.975-106.963 106.952-106.963 6.14 0 12.166.525 18.028 1.535z"/></g><path d="m335.733 73.866-69.949 69.928h-21.86c-8.211-8.2-26.877-26.939-69.866-70.031 3.389-3.894 7.046-7.551 10.951-10.92l62.119 62.264v-87.998c2.555-.185 5.12-.278 7.716-.278s5.182.093 7.737.278v88.038l62.233-62.202c3.893 3.38 7.54 7.027 10.919 10.921z" fill="#f0a70a"/><path d="m506.433 337.476-.155-.422c-14.216-43.391-70.814-37.488-70.814-37.488l-.206.021c-.309-4.09-1.308-8.19-3.06-12.156-1.607-3.606-3.709-6.84-6.191-9.642-.752-.845-1.453-1.71-2.112-2.606l.103-.082s26.548-42.268 78.262-18.636c11.775 26.629 12.507 55.339 4.173 81.011z" fill="#f76c57"/><path d="m446.291 405.53c-.68.319-1.37.628-2.071.937-36.684 16.215-77.222 11.589-108.374-8.849.021-.68.031-1.051.031-1.051 5.769-54.96 35.098-67.229 35.098-67.229l1.02-.659c8.921 8.88 22.035 12.805 34.521 9.962v.01s-4.265 42.185 39.775 66.879z" fill="#f76c57"/><path d="m371.902 397.618c13.382 8.777 28.495 14.639 44.287 17.173-28.34 4.595-56.979-1.844-80.343-17.173-17.503-11.456-32.038-27.907-41.289-48.428-2.544-5.635-4.584-11.373-6.15-17.152-4.564-16.854 8.746-33.264 26.197-32.636l22.458.824c1.504.052 2.988.216 4.43.474-12.599 4.162-20.748 17.606-17.029 31.338 1.566 5.779 3.606 11.517 6.15 17.152 9.251 20.52 23.787 36.972 41.289 48.428z" fill="#f87b67"/><path d="m358.821 511.282h-206.499c-7.052 0-13.847-2.651-19.035-7.427l-106.976-98.466h457.083l-105.398 98.337c-5.205 4.856-12.057 7.556-19.175 7.556z" fill="#a0cafe"/><path d="m188.377 511.287h-36.056c-7.046 0-13.845-2.658-19.038-7.428l-106.972-98.474h36.056l106.973 98.474c5.192 4.77 11.991 7.428 19.037 7.428z" fill="#81b8fd"/><path d="m26.544 431.954h456.616c14.66 0 26.544-11.884 26.544-26.544 0-14.66-11.884-26.544-26.544-26.544h-456.616c-14.66-.001-26.544 11.883-26.544 26.543 0 14.66 11.884 26.545 26.544 26.545z" fill="#62a6fd"/><path d="m37.653 424.176c4.801 4.811 11.445 7.778 18.77 7.778h-29.875c-7.325 0-13.969-2.967-18.77-7.778-4.811-4.801-7.778-11.446-7.778-18.77 0-14.659 11.888-26.537 26.548-26.537h29.875c-14.659 0-26.548 11.878-26.548 26.537 0 7.324 2.967 13.969 7.778 18.77z" fill="#4394fb"/></svg>